<?xml version="1.0" standalone="no"?>
<!DOCTYPE svg PUBLIC "-//W3C//DTD SVG 20010904//EN"
 "http://www.w3.org/TR/2001/REC-SVG-20010904/DTD/svg10.dtd">
<svg version="1.0" xmlns="http://www.w3.org/2000/svg"
 width="288.000000pt" height="288.000000pt" viewBox="0 0 288.000000 288.000000"
 preserveAspectRatio="xMidYMid meet">
<metadata>
Created by potrace 1.15, written by Peter Selinger 2001-2017
</metadata>
<g transform="translate(0.000000,288.000000) scale(0.100000,-0.100000)"
fill="#000000" stroke="none">
<path d="M1194 2851 c-510 -93 -935 -462 -1098 -954 -51 -155 -61 -227 -61
-442 0 -215 10 -285 61 -442 137 -420 493 -775 909 -906 178 -56 226 -62 450
-61 201 0 215 2 325 31 279 74 473 184 670 382 197 198 324 431 385 711 25
114 31 373 12 495 -50 314 -180 571 -401 790 -203 202 -424 324 -701 386 -132
30 -413 35 -551 10z m507 -51 c273 -51 501 -172 705 -375 272 -271 404 -588
404 -969 0 -323 -91 -590 -285 -841 -188 -242 -448 -412 -755 -492 -130 -34
-416 -44 -560 -19 -189 33 -402 122 -560 234 -93 66 -232 203 -305 301 -120
159 -214 376 -250 576 -22 119 -22 360 0 480 97 544 529 990 1065 1100 183 38
351 39 541 5z"/>
<path d="M1350 2725 c-8 -2 -55 -9 -105 -15 -385 -52 -748 -316 -932 -676 -97
-190 -136 -350 -137 -566 -1 -100 -4 -139 -14 -143 -7 -2 -12 -22 -12 -46 0
-33 4 -42 20 -46 11 -3 23 -17 26 -32 97 -443 403 -794 822 -945 264 -95 590
-95 854 0 254 92 481 270 637 501 77 116 138 259 181 430 8 31 16 42 33 45 19
3 22 10 25 51 3 40 0 49 -15 53 -16 5 -18 19 -19 137 -4 351 -135 651 -393
900 -204 196 -457 314 -744 346 -89 10 -192 13 -227 6z m-508 -1151 l173 -227
5 224 5 224 35 3 c35 3 36 1 210 -228 l175 -231 3 231 2 230 34 0 c33 0 41 -9
208 -229 95 -127 176 -230 181 -230 4 -1 7 103 7 229 l0 230 34 0 c33 0 41 -9
220 -245 l187 -245 173 0 c211 0 236 -4 236 -36 l0 -24 -215 0 -214 0 -168
222 -168 221 -5 -219 -5 -219 -41 -3 -42 -3 -168 222 -169 221 -5 -218 -5
-219 -40 0 -40 0 -170 222 -170 222 -3 -224 -2 -225 -39 0 -39 0 -168 223
-169 222 -3 -222 -2 -223 -255 0 -255 0 0 30 0 30 215 0 215 0 0 245 0 245 35
0 c33 0 40 -8 207 -226z"/>
</g>
</svg>
