<svg xmlns="http://www.w3.org/2000/svg" version="1.0" width="1280.000000" height="799.000000" preserveAspectRatio="xMidYMid meet" style=""><rect id="backgroundrect" width="100%" height="100%" x="0" y="0" fill="none" stroke="none"/>
<metadata>
Created by potrace 1.15, written by Peter Selinger 2001-2017
</metadata>

<g class="currentLayer" style=""><title>Layer 1</title><g transform="translate(0,799) scale(0.10000000149011612,-0.10000000149011612) " fill="#00ff00" stroke="none" id="svg_1" class="selected" fill-opacity="1">
<path d="M3172 7804 c-50 -53 -114 -178 -137 -271 -9 -35 -20 -118 -25 -185 -9 -131 -26 -201 -85 -338 -19 -44 -33 -80 -32 -80 1 0 26 9 54 20 29 11 77 23 106 26 l54 6 6 109 c7 119 35 271 67 363 14 41 20 85 20 141 0 66 5 94 25 139 30 67 33 116 8 116 -9 0 -36 -21 -61 -46z" id="svg_2" fill="#00ff00"/>
<path d="M3389 7779 c-106 -156 -198 -445 -230 -720 l-12 -107 -66 -5 c-189 -14 -495 -196 -628 -371 -62 -83 -92 -158 -100 -248 l-6 -67 -166 -98 c-312 -183 -535 -343 -567 -404 -25 -49 -11 -90 52 -158 87 -95 289 -212 404 -235 63 -13 68 -16 74 -49 9 -46 51 -103 80 -111 19 -5 99 18 279 78 286 96 415 126 546 126 71 0 104 -5 154 -24 303 -114 584 -382 732 -698 53 -115 82 -144 198 -205 48 -25 92 -54 97 -64 6 -10 24 -58 41 -106 40 -114 118 -273 178 -365 80 -123 144 -190 265 -282 161 -122 297 -277 459 -527 131 -203 228 -388 262 -502 35 -118 110 -827 134 -1267 9 -155 15 -193 51 -335 23 -88 46 -178 52 -200 5 -22 8 -101 5 -175 -7 -220 -41 -278 -189 -325 -46 -14 -102 -35 -125 -46 -46 -22 -56 -44 -68 -138 l-6 -54 311 5 310 6 36 27 c46 35 81 89 93 145 6 25 11 126 11 226 0 200 9 249 62 334 39 63 36 103 -17 221 l-38 84 -23 270 c-61 716 -67 811 -68 1095 l-1 285 47 80 c55 93 73 157 65 226 l-6 49 97 -7 c155 -13 557 -9 652 5 126 20 213 44 540 149 638 205 813 228 1125 150 376 -95 596 -205 761 -380 73 -78 96 -111 197 -298 84 -153 200 -281 428 -470 149 -125 167 -144 297 -313 495 -645 605 -892 589 -1314 -5 -133 -28 -286 -45 -304 -4 -4 -54 -2 -112 4 -78 8 -116 8 -147 -1 -68 -19 -72 -27 -66 -138 3 -54 6 -99 7 -99 0 -1 141 -4 311 -8 l311 -6 46 92 c25 51 58 115 73 142 23 39 29 65 32 125 4 70 -1 95 -60 301 -113 392 -148 584 -151 815 -1 143 -2 152 -28 195 -14 25 -60 76 -102 114 -78 70 -181 187 -251 286 -95 135 -308 667 -382 955 -24 95 -26 118 -33 480 -7 323 -11 399 -30 505 -45 254 -120 432 -252 592 l-39 47 28 15 c61 31 78 61 81 144 1 42 -1 82 -5 88 -4 6 -62 17 -128 23 -246 23 -458 70 -634 141 -455 181 -1796 431 -2746 511 -225 20 -743 17 -878 -4 l-108 -17 -127 46 c-375 136 -652 284 -857 461 -167 144 -382 308 -531 407 l-72 47 -6 62 c-11 95 -63 356 -103 512 -70 275 -155 475 -241 567 -73 78 -75 78 -123 7z" id="svg_3" fill="#00ff00"/>
<path d="M4425 3860 c56 -194 130 -391 240 -640 66 -148 85 -205 126 -374 60 -243 101 -384 145 -496 27 -69 39 -126 63 -300 47 -337 61 -476 65 -647 4 -144 7 -165 34 -243 28 -80 30 -97 36 -290 7 -206 -3 -365 -25 -414 -13 -27 -61 -50 -125 -61 -138 -22 -162 -61 -122 -193 l10 -32 181 2 182 3 30 62 c41 85 54 96 152 134 l85 33 -7 55 c-4 31 -9 189 -11 352 l-3 295 -35 123 c-42 147 -50 226 -71 716 -26 603 -39 724 -97 866 -92 230 -354 583 -561 757 -147 123 -217 193 -260 257 -21 33 -36 49 -32 35z" id="svg_4" fill="#00ff00"/>
<path d="M8075 3434 c-128 -18 -170 -29 -168 -42 1 -6 38 -93 82 -195 43 -101 96 -229 116 -283 65 -173 107 -240 425 -684 227 -317 319 -460 395 -615 71 -145 105 -263 105 -367 0 -149 -82 -443 -174 -626 -63 -126 -58 -123 -212 -120 -90 2 -136 -1 -151 -10 -36 -20 -53 -64 -53 -137 l0 -65 309 0 308 0 93 198 c158 334 368 789 412 891 34 77 42 108 42 156 0 75 -15 105 -144 290 -197 281 -289 448 -344 623 -45 144 -44 270 5 542 l19 105 -26 21 c-149 122 -556 278 -844 323 -77 13 -79 13 -195 -5z" id="svg_5" fill="#00ff00"/>
</g></g></svg>